<?xml version="1.0" encoding="UTF-8" standalone="no"?>
<!-- Created with Inkscape (http://www.inkscape.org/) -->

<svg
   width="210mm"
   height="297mm"
   viewBox="0 0 210 297"
   version="1.1"
   id="svg1"
   xmlns="http://www.w3.org/2000/svg"
   xmlns:svg="http://www.w3.org/2000/svg">
  <defs
     id="defs1" />
  <g
     id="layer1">
    <g
       id="Layer_2-1"
       transform="matrix(-0.26458333,0,0,0.26458334,191.14122,-18.601659)">
	<path
   fill="#96a9b2"
   d="M 465.624,390.73 C 467.999,386.697 324.99,257.327 324.99,257.327 c -17.984,-15.829 -29.211,-16.078 -53.943,0 0,0 -199.388,129.266 -198.819,133.244 l -0.041,0.029 c 0.01,0.035 0.034,0.058 0.05,0.09 0.589,3.992 1.91,7.668 3.859,10.884 0.832,1.373 1.944,2.523 2.995,3.719 l -0.075,0.049 c 0.084,0.093 0.214,0.136 0.298,0.229 4.476,4.962 10.787,8.176 18.379,9.093 0.119,0.015 0.203,0.078 0.322,0.093 h 0.47 c 1.16,0.113 2.224,0.398 3.438,0.398 h 323.456 c 15.927,0 31.615,-10.016 40.049,-24.057 0.087,-0.105 0.202,-0.18 0.284,-0.287 z"
   id="path1-3"
   style="fill:#917c6f" />

</g>
    <g
       id="Layer_3-6"
       transform="matrix(-0.26458333,0,0,0.26458334,191.14122,-18.601659)"
       style="fill:#c8beb7">
	<path
   fill="#b9c5c6"
   d="M 301.505,242.48 73.339,389.467 118.931,181.235 c 4.444,-20.296 24.496,-36.747 44.792,-36.747 h 318.472 c 20.296,0 33.145,16.45 28.701,36.747 l -45.592,208.232 z"
   id="path2-2"
   style="fill:#c8beb7" />

</g>
    <g
       id="Layer_4-2"
       transform="matrix(-0.26458333,0,0,0.26458334,191.14122,-18.601659)">
	<path
   fill="#edece6"
   d="m 124.015,168.458 138.552,131.427 c 17.707,15.585 28.761,15.831 53.112,0 L 511.474,168.666 c -1.748,-5.254 -5.179,-9.405 -9.416,-12.715 l 2.693,-1.801 c -4.491,-5.105 -10.935,-8.416 -18.706,-9.27 l -326.329,0.011 c -8.12,0.843 -16.028,4.165 -22.74,9.259 l 1.892,1.778 c -5.621,3.266 -10.813,7.345 -14.853,12.53 z"
   id="path3-7" />

</g>
    <g
       id="Layer_5-7"
       transform="matrix(-0.26458333,0,0,0.26458334,191.14122,-18.601659)"
       style="fill:#e3dedb">
	<path
   fill="#dce2e2"
   d="m 123.9,168.734 c -2.339,3.971 138.467,131.347 138.467,131.347 17.707,15.585 28.761,15.831 53.112,0 0,0 196.315,-127.274 195.755,-131.19 l 0.041,-0.029 c -0.01,-0.034 -0.033,-0.057 -0.049,-0.089 -0.58,-3.931 -1.88,-7.549 -3.799,-10.717 -0.819,-1.352 -1.914,-2.484 -2.949,-3.662 l 0.074,-0.049 c -0.083,-0.091 -0.211,-0.134 -0.294,-0.226 -4.407,-4.885 -10.621,-8.05 -18.095,-8.953 -0.117,-0.014 -0.2,-0.077 -0.317,-0.091 h -0.463 c -1.142,-0.111 -2.19,-0.392 -3.385,-0.392 H 163.525 c -15.682,0 -31.128,9.862 -39.431,23.686 -0.085,0.103 -0.199,0.177 -0.279,0.283 z"
   id="path4-8"
   style="fill:#e3dedb" />

</g>
    <g
       id="Layer_6-0"
       transform="matrix(-0.26458333,0,0,0.26458334,191.14122,-18.601659)"
       style="fill:#ff815d;fill-opacity:1">
	<path
   fill="#59cafc"
   d="M 94.447,208.62 H 14.44 c -6.627,0 -12,-5.373 -12,-12 0,-6.627 5.373,-12 12,-12 h 80.007 c 6.627,0 12,5.373 12,12 0,6.627 -5.372,12 -12,12 z m -13.108,70.236 c 0,-6.627 -5.373,-12 -12,-12 H 14.44 c -6.627,0 -12,5.373 -12,12 0,6.627 5.373,12 12,12 h 54.899 c 6.628,0 12,-5.373 12,-12 z m -18.215,82.237 c 0,-6.627 -5.373,-12 -12,-12 H 14.44 c -6.627,0 -12,5.373 -12,12 0,6.627 5.373,12 12,12 h 36.684 c 6.627,0 12,-5.373 12,-12 z"
   id="path5-2"
   style="fill:#ff815d;fill-opacity:1" />

</g>
    <g
       id="Layer_2"
       transform="matrix(0.26458333,0,0,0.26458334,18.401257,33.964793)"
       style="fill:#917c6f">
	<path
   fill="#96a9b2"
   d="M 465.624,390.73 C 467.999,386.697 324.99,257.327 324.99,257.327 c -17.984,-15.829 -29.211,-16.078 -53.943,0 0,0 -199.388,129.266 -198.819,133.244 l -0.041,0.029 c 0.01,0.035 0.034,0.058 0.05,0.09 0.589,3.992 1.91,7.668 3.859,10.884 0.832,1.373 1.944,2.523 2.995,3.719 l -0.075,0.049 c 0.084,0.093 0.214,0.136 0.298,0.229 4.476,4.962 10.787,8.176 18.379,9.093 0.119,0.015 0.203,0.078 0.322,0.093 h 0.47 c 1.16,0.113 2.224,0.398 3.438,0.398 h 323.456 c 15.927,0 31.615,-10.016 40.049,-24.057 0.087,-0.105 0.202,-0.18 0.284,-0.287 z"
   id="path1"
   style="fill:#917c6f" />

</g>
    <g
       id="Layer_3"
       transform="matrix(0.26458333,0,0,0.26458334,18.401257,33.964793)"
       style="fill:#c8beb7">
	<path
   fill="#b9c5c6"
   d="M 301.505,242.48 73.339,389.467 118.931,181.235 c 4.444,-20.296 24.496,-36.747 44.792,-36.747 h 318.472 c 20.296,0 33.145,16.45 28.701,36.747 l -45.592,208.232 z"
   id="path2"
   style="fill:#c8beb7" />

</g>
    <g
       id="Layer_4"
       transform="matrix(0.26458333,0,0,0.26458334,18.401257,33.964793)">
	<path
   fill="#edece6"
   d="m 124.015,168.458 138.552,131.427 c 17.707,15.585 28.761,15.831 53.112,0 L 511.474,168.666 c -1.748,-5.254 -5.179,-9.405 -9.416,-12.715 l 2.693,-1.801 c -4.491,-5.105 -10.935,-8.416 -18.706,-9.27 l -326.329,0.011 c -8.12,0.843 -16.028,4.165 -22.74,9.259 l 1.892,1.778 c -5.621,3.266 -10.813,7.345 -14.853,12.53 z"
   id="path3" />

</g>
    <g
       id="Layer_5"
       transform="matrix(0.26458333,0,0,0.26458334,18.401257,33.964793)"
       style="fill:#e3dedb">
	<path
   fill="#dce2e2"
   d="m 123.9,168.734 c -2.339,3.971 138.467,131.347 138.467,131.347 17.707,15.585 28.761,15.831 53.112,0 0,0 196.315,-127.274 195.755,-131.19 l 0.041,-0.029 c -0.01,-0.034 -0.033,-0.057 -0.049,-0.089 -0.58,-3.931 -1.88,-7.549 -3.799,-10.717 -0.819,-1.352 -1.914,-2.484 -2.949,-3.662 l 0.074,-0.049 c -0.083,-0.091 -0.211,-0.134 -0.294,-0.226 -4.407,-4.885 -10.621,-8.05 -18.095,-8.953 -0.117,-0.014 -0.2,-0.077 -0.317,-0.091 h -0.463 c -1.142,-0.111 -2.19,-0.392 -3.385,-0.392 H 163.525 c -15.682,0 -31.128,9.862 -39.431,23.686 -0.085,0.103 -0.199,0.177 -0.279,0.283 z"
   id="path4"
   style="fill:#e3dedb" />

</g>
    <g
       id="Layer_6"
       transform="matrix(0.26458333,0,0,0.26458334,18.401257,33.964793)">
	<path
   fill="#59cafc"
   d="M 94.447,208.62 H 14.44 c -6.627,0 -12,-5.373 -12,-12 0,-6.627 5.373,-12 12,-12 h 80.007 c 6.627,0 12,5.373 12,12 0,6.627 -5.372,12 -12,12 z m -13.108,70.236 c 0,-6.627 -5.373,-12 -12,-12 H 14.44 c -6.627,0 -12,5.373 -12,12 0,6.627 5.373,12 12,12 h 54.899 c 6.628,0 12,-5.373 12,-12 z m -18.215,82.237 c 0,-6.627 -5.373,-12 -12,-12 H 14.44 c -6.627,0 -12,5.373 -12,12 0,6.627 5.373,12 12,12 h 36.684 c 6.627,0 12,-5.373 12,-12 z"
   id="path5"
   style="fill:#ff815d;fill-opacity:1" />

</g>
  </g>
</svg>
